# xmcd
#
# Track frame offsets:
#	150
#	13927
#	28107
#	46537
#	63592
#	83192
#	95990
#	105035
#	122267
#	138295
#	152017
#	168322
#	185942
#
# Disc length: 2662 seconds
#
# Revision: 7
# Processed by: cddbd v1.5.2PL0 Copyright (c) Steve Scherf et al.
# Submitted via: audiograbber 1.83.01
#
DISCID=a20a640d
DTITLE=Waylon Jennings - Right For The Time
DYEAR=1996
DGENRE=Country
TTITLE0=WBPT
TTITLE1=Cactus Texas
TTITLE2=The Most Sensible Thing
TTITLE3=The Boxer
TTITLE4=Hittin' The Bottle Again
TTITLE5=Wastin' Time
TTITLE6=Kissing You Goodbye
TTITLE7=Carnival Song
TTITLE8=Out Of Jail
TTITLE9=Lines
TTITLE10=Deep In The West
TTITLE11=Right For The Time
TTITLE12=Living Legends Pt. II
EXTD=
EXTT0=
EXTT1=
EXTT2=
EXTT3=
EXTT4=
EXTT5=
EXTT6=
EXTT7=
EXTT8=
EXTT9=
EXTT10=(Duet with Jesse Colter)
EXTT11=
EXTT12=
PLAYORDER=
